<svg xmlns="http://www.w3.org/2000/svg" width="64" height="64" fill="none"><path fill="#F5F5F5" d="M0 0h64v64H0z"/><g clip-path="url(#a)"><path fill="#fff" d="M-818-940H622v5153H-818z"/><path fill="#F2F4F6" d="M-818-170H622v938H-818z"/><rect width="382" height="356" x="-289" y="-29" fill="#F2F4F6" rx="5"/><rect width="64" height="64" fill="#E1E7ED" rx="32"/><path fill="#1AAB7B" d="M36.983 19.5H26.508c-4.55 0-7.263 2.712-7.263 7.262v10.463c0 4.563 2.713 7.275 7.263 7.275H36.97c4.55 0 7.263-2.712 7.263-7.263V26.762c.012-4.55-2.7-7.262-7.25-7.262Zm-7.85 17.737c0 .8-.65 1.45-1.463 1.45-.8 0-1.45-.65-1.45-1.45v-4.075c0-.8.65-1.45 1.45-1.45.813 0 1.463.65 1.463 1.45v4.075Zm8.137 0c0 .8-.65 1.45-1.45 1.45-.812 0-1.462-.65-1.462-1.45V26.762c0-.8.65-1.45 1.462-1.45.8 0 1.45.65 1.45 1.45v10.475Z"/><rect width="382" height="356" x="-289" y="-29" stroke="#E1E7ED" stroke-width="2" rx="5"/></g><defs><clipPath id="a"><path fill="#fff" d="M-818-940H622v5153H-818z"/></clipPath></defs></svg>